<svg width="37" height="35" viewBox="0 0 37 35" fill="none" xmlns="http://www.w3.org/2000/svg">
<path d="M18.4069 1.49855e-06C8.23704 -0.00400037 0 8.00774 0 17.8964C0 25.716 5.15277 32.3631 12.3288 34.8043C13.2952 35.0404 13.1472 34.3721 13.1472 33.9158V30.8144C7.56672 31.4507 7.34054 27.857 6.96632 27.2567C6.20965 26.0001 4.42078 25.68 4.95538 25.0797C6.2261 24.4434 7.52149 25.2398 9.0225 27.3968C10.1082 28.9615 12.226 28.6974 13.2993 28.4373C13.5337 27.4968 14.0354 26.6564 14.7263 26.0041C8.94436 24.9957 6.53452 21.5621 6.53452 17.4802C6.53452 15.4992 7.20484 13.6784 8.52079 12.2097C7.68187 9.78857 8.59892 7.7156 8.72229 7.40746C11.1116 7.19936 13.5954 9.07224 13.7887 9.22031C15.1458 8.86414 16.6961 8.67605 18.4316 8.67605C20.1752 8.67605 21.7297 8.87214 23.0991 9.23231C23.5638 8.88815 25.8667 7.2794 28.0873 7.47549C28.2066 7.78364 29.1031 9.80858 28.3135 12.1977C29.6459 13.6704 30.3245 15.5072 30.3245 17.4922C30.3245 21.5821 27.8982 25.0197 22.0998 26.0121C22.5964 26.4874 22.9908 27.0543 23.2598 27.6796C23.5288 28.3048 23.6671 28.976 23.6666 29.6538V34.156C23.6995 34.5161 23.6666 34.8723 24.2834 34.8723C31.5664 32.4832 36.8096 25.788 36.8096 17.9004C36.8096 8.00774 28.5685 1.49855e-06 18.4069 1.49855e-06Z" fill="current"/>
</svg>
